<?xml version="1.0" encoding="UTF-8"?>
<!-- Generator: visioncortex VTracer 0.6.5 -->
<svg version="1.1" xmlns="http://www.w3.org/2000/svg" width="1022" height="1015" viewBox="0 0 1022 1015">
<path d="M0 0 C1.38 0.19 2.76 0.38 4.14 0.57 C50.08 6.97 94.78 19.76 137 39 C138.1 39.5 139.2 40 140.34 40.52 C156.81 48.07 172.52 56.58 188 66 C188.75 66.45 189.5 66.9 190.27 67.36 C206.55 77.15 222.14 88.16 237 100 C237.89 100.71 238.79 101.42 239.71 102.16 C258.45 117.31 277.31 133.43 293.04 151.76 C294.93 153.92 296.88 156.03 298.85 158.12 C304.79 164.48 310.19 171.15 315.49 178.05 C317.1 180.13 318.74 182.2 320.38 184.26 C328.5 194.49 335.97 204.99 343 216 C343.52 216.81 344.04 217.62 344.57 218.45 C395.47 297.95 423.8 393.16 409.89 583.99 C408.32 591.15 406.56 598.27 404.75 605.38 C404.58 606.06 404.4 606.75 404.23 607.45 C403.74 609.37 403.24 611.29 402.73 613.21 C402.45 614.31 402.16 615.4 401.87 616.53 C401 619 401 619 399 620 C399.18 618.74 399.36 617.47 399.55 616.17 C401.08 605.36 402.44 594.54 403.62 583.69 C403.69 583.13 403.69 583.13 404 580.34 C405.71 564.28 406.19 548.21 406.55 532.08 C406.73 524.06 406.96 516.06 407.52 508.05 C408.13 498.95 408.2 489.87 408.19 480.75 C408.19 479.88 408.19 479.01 408.19 478.11 C408.05 402.97 389.46 331.11 356 264 C355.57 263.14 355.14 262.28 354.7 261.4 C339.48 231.05 319.82 202.94 298 177 C297.76 176.72 297.76 176.72 296.57 175.29 C286.26 163.05 286.26 163.05 280.57 157.56 C278.82 155.82 277.23 153.99 275.62 152.12 C269.94 145.55 263.75 139.53 257.15 133.87 C254.62 131.67 252.16 129.4 249.69 127.12 C244.8 122.68 239.81 118.42 234.64 114.31 C233.49 113.39 232.34 112.46 231.2 111.53 C213.06 96.81 193.37 83.47 173 72 C172.61 71.78 172.61 71.78 170.65 70.67 C112.08 37.61 47.96 17.12 -19 11 C-18.1 11.21 -17.2 11.42 -16.27 11.64 C61.11 29.82 131.8 62.83 193 114 C193.52 114.44 194.04 114.87 194.58 115.32 C210.62 128.75 226.67 143 240.24 158.96 C242.35 161.41 244.55 163.76 246.75 166.12 C252.08 171.96 256.93 178.12 261.75 184.38 C263.55 186.72 265.37 189.05 267.19 191.38 C268.13 192.58 269.06 193.79 270 195 C267 195 267 195 264.14 192.4 C263.03 191.25 261.92 190.1 260.81 188.94 C259.63 187.73 258.45 186.52 257.26 185.31 C256.69 184.73 256.13 184.15 255.54 183.55 C253.21 181.21 250.77 179.05 248.25 176.91 C246.41 175.35 244.59 173.76 242.78 172.15 C236.18 166.32 229.47 160.74 222.44 155.44 C212.43 147.9 203 139.82 193.81 131.31 C188.39 126.3 182.8 121.56 177 117 C176.3 116.45 175.61 115.89 174.89 115.33 C147.88 93.98 118.67 76.5 88 61 C87.63 60.81 87.63 60.81 85.78 59.87 C26.8 30.23 -39.43 16.57 -105 14 C-105.57 13.98 -105.57 13.98 -108.46 13.86 C-206.66 10.36 -310.43 68.57 -381 133 C-381.92 133.83 -382.84 134.66 -383.79 135.51 C-393.66 144.44 -403.52 153.61 -412.12 163.78 C-413.67 165.62 -415.25 167.42 -416.85 169.22 C-427.74 181.54 -437.57 194.59 -447.25 207.88 C-447.81 208.64 -448.37 209.41 -448.95 210.2 C-449.21 210.56 -449.21 210.56 -450.52 212.37 C-450.97 213 -451.43 213.63 -451.9 214.28 C-453 216 -453 216 -454 219 C-452.76 217.66 -451.53 216.33 -450.29 214.99 C-449.21 213.81 -448.13 212.64 -447.04 211.47 C-444.4 208.61 -441.76 205.74 -439.14 202.85 C-431.19 194.08 -423.09 185.48 -414.07 177.79 C-411.62 175.67 -409.25 173.46 -406.88 171.25 C-401.11 166 -395.07 161.2 -388.88 156.46 C-387 155 -385.14 153.53 -383.28 152.05 C-363.13 136.16 -341.36 122.52 -319 110 C-318.65 109.8 -318.65 109.8 -316.9 108.81 C-267.17 80.73 -210.43 64.13 -154.06 56.29 C-152.13 56.02 -150.2 55.74 -148.28 55.46 C-109.34 50.05 -66.89 50.37 -28 56 C-26.6 56.2 -25.2 56.39 -23.79 56.59 C19.41 62.69 62.09 74.23 102 92 C103.08 92.48 104.15 92.95 105.26 93.44 C121.71 100.75 137.52 108.8 153 118 C153.8 118.47 154.6 118.94 155.43 119.43 C171.04 128.64 187.07 138.17 200 151 C200.7 151.68 201.4 152.35 202.12 153.05 C205.98 156.81 209.59 160.74 213.1 164.82 C215.27 167.31 217.51 169.71 219.75 172.12 C224.97 177.86 229.74 183.89 234.47 190.03 C236.09 192.12 237.74 194.19 239.39 196.26 C259.33 221.39 276 249.09 289.99 277.93 C291.03 280.07 292.09 282.19 293.14 284.31 C315.27 329.28 328.4 379.13 334.25 428.75 C334.33 429.45 334.42 430.16 334.5 430.88 C336.56 448.55 337.24 466.04 337.25 483.81 C337.25 484.36 337.25 484.36 337.25 487.15 C337.23 506.26 336.4 525.04 334 544 C333.84 545.29 333.68 546.59 333.51 547.92 C323.61 624.51 294.02 699.9 248 762 C247.29 762.97 246.58 763.95 245.84 764.95 C237.51 776.25 228.71 787.27 219.2 797.59 C218.01 798.9 216.83 800.21 215.69 801.55 C210.03 808.2 203.85 814.33 197.69 820.5 C195.76 822.42 193.85 824.36 191.93 826.29 C184.93 833.33 177.81 839.85 170 846 C168.87 846.95 167.76 847.9 166.64 848.86 C138.08 873.57 105.62 893.02 72 910 C71.13 910.44 70.25 910.88 69.35 911.34 C54.95 918.57 40.15 924.52 25 930 C23.92 930.39 22.84 930.78 21.73 931.18 C4.67 937.28 -12.6 942.06 -30.23 946.13 C-32.6 946.68 -34.97 947.24 -37.34 947.81 C-57.42 952.68 -77.44 952.92 -98 953 C-95.4 954.31 -92.79 955.63 -90.19 956.94 C-89.82 957.12 -89.82 957.12 -87.95 958.07 C-87.24 958.43 -86.53 958.78 -85.79 959.15 C-85.47 959.32 -85.47 959.32 -83.81 960.15 C-74.39 964.57 -61.67 961.61 -51.56 960.81 C-50.73 960.75 -49.91 960.68 -49.05 960.62 C42.12 953.32 127.19 923.15 220 856 C220.98 855.22 221.95 854.44 222.96 853.63 C228.26 849.35 233.39 844.93 238.42 840.34 C239.79 839.09 241.18 837.85 242.59 836.65 C249.07 831.13 255.06 825.13 261.07 819.11 C262.92 817.26 264.79 815.42 266.65 813.58 C272.78 807.47 278.61 801.31 283.99 794.51 C285.95 792.06 288 789.73 290.11 787.41 C294.1 782.96 297.7 778.3 301.25 773.5 C301.9 772.63 302.54 771.76 303.21 770.86 C305.15 768.25 307.08 765.63 309 763 C309.54 762.26 310.08 761.52 310.64 760.76 C322.6 744.4 333.16 727.14 342.76 709.3 C343.6 707.74 344.45 706.18 345.3 704.63 C359.35 679.06 371.55 651.3 379.25 623.1 C380 621 380 621 382 620 C380.72 629.33 378.9 638.43 376.62 647.56 C376.46 648.24 376.29 648.91 376.11 649.61 C358.51 719.58 325.26 784.67 279 840 C278.56 840.52 278.13 841.04 277.68 841.58 C263.63 858.37 248.65 875.19 231.91 889.37 C228.83 892 225.87 894.76 222.88 897.5 C208.17 910.27 192.37 922.27 175.94 932.76 C173.83 934.11 171.73 935.48 169.63 936.85 C153.39 947.37 136.4 956.6 118.99 965.03 C116.92 966.04 114.87 967.07 112.81 968.1 C69.08 989.77 20.27 1002.69 -28 1009 C-28.59 1009.08 -28.59 1009.08 -31.59 1009.49 C-83.58 1016.34 -144.29 1016.24 -195 1001 C-195 1000.67 -195 1000.34 -195 1000 C-193.79 1000.18 -192.58 1000.37 -191.34 1000.55 C-185.97 1001.02 -181.01 1001.21 -176 999 C-170.38 993.67 -166.91 986.52 -163.42 979.7 C-161.75 976.52 -159.86 973.53 -157.88 970.54 C-157 969 -157 969 -157 967 C-162.61 966.34 -168.22 965.68 -174 965 C-174 964.34 -174 963.68 -174 963 C-172.14 961.57 -170.21 960.23 -168.25 958.94 C-167.18 958.22 -166.12 957.51 -165.02 956.78 C-162 955 -162 955 -159.67 954.44 C-159.12 954.3 -158.57 954.15 -158 954 C-157.67 953.01 -157.34 952.02 -157 951 C-155.11 949.18 -155.11 949.18 -152.75 947.31 C-151.98 946.69 -151.21 946.07 -150.42 945.43 C-147.68 943.81 -146.12 943.71 -143 944 C-142.01 941.03 -141.02 938.06 -140 935 C-142.16 932.34 -143.43 931.13 -146.81 930.38 C-155.1 932 -160.19 940.66 -165 947 C-165.39 947.78 -165.77 948.56 -166.17 949.37 C-168 951 -168 951 -171.76 951 C-178.59 949.9 -185.23 947.89 -191.88 946 C-193.21 945.63 -194.54 945.25 -195.87 944.88 C-205.27 942.24 -205.27 942.24 -209 941 C-208.01 937.04 -207.02 933.08 -206 929 C-204.17 929.52 -202.34 930.03 -200.45 930.57 C-198.05 931.23 -195.65 931.9 -193.25 932.56 C-192.04 932.9 -190.84 933.25 -189.59 933.6 C-188.43 933.92 -187.27 934.24 -186.08 934.57 C-185.01 934.86 -183.94 935.16 -182.84 935.47 C-180.05 935.99 -178.6 936.05 -176 935 C-173.22 932.01 -171.17 928.44 -169 925 C-168.65 924.45 -168.3 923.91 -167.95 923.35 C-152.43 898.74 -140.75 871.55 -129 845 C-128.68 844.27 -128.36 843.55 -128.03 842.8 C-49.15 664.67 -49.15 664.67 -68.02 613.23 C-70 608.36 -72.12 604.44 -77 602 C-79.9 601.89 -82.77 601.85 -85.66 601.86 C-86.11 601.86 -86.11 601.86 -88.36 601.87 C-98 601.94 -107.6 602.47 -117.22 603.05 C-120.5 603.25 -123.78 603.44 -127.07 603.63 C-134.09 604.04 -141.11 604.46 -148.12 604.88 C-175.37 606.49 -202.6 608.07 -229.87 609.18 C-230.37 609.2 -230.37 609.2 -232.89 609.31 C-251.54 610.07 -270.18 610.26 -288.84 610.27 C-289.62 610.27 -290.41 610.27 -291.22 610.28 C-295.01 610.24 -296.76 610.16 -300 608 C-299.13 607.53 -298.26 607.05 -297.36 606.57 C-289.05 601.99 -281.38 596.99 -274 591 C-273.1 590.28 -272.2 589.55 -271.27 588.8 C-260.1 579.29 -251.81 567.1 -244.03 554.77 C-241.91 551.41 -239.77 548.09 -237.44 544.88 C-236.96 544.21 -236.49 543.55 -236 542.87 C-229.11 536.43 -220.78 535.99 -211.81 535 C-197.24 533.36 -183.67 531.2 -172.69 520.81 C-165.34 508.57 -166.37 498.15 -169.65 484.85 C-171.91 476.34 -175.3 468.22 -178.56 460.06 C-179.9 456.68 -181.24 453.3 -182.57 449.91 C-182.88 449.12 -183.19 448.33 -183.51 447.51 C-185.63 442.07 -187.47 436.63 -189 431 C-187.32 429.24 -185.63 427.49 -183.94 425.75 C-183.47 425.26 -183.01 424.77 -182.53 424.26 C-182.05 423.78 -181.58 423.29 -181.09 422.8 C-180.67 422.36 -180.24 421.92 -179.8 421.46 C-174.49 417.15 -170.21 415.33 -163.37 415.54 C-162.61 415.55 -161.84 415.56 -161.06 415.58 C-148.69 415.94 -136.38 417.8 -124.12 419.38 C-25.82 431.9 -25.82 431.9 11 405 C11.66 405.33 12.32 405.66 13 406 C8.38 410.62 3.76 415.24 -1 420 C1.36 422.36 6.95 421.53 10.12 421.69 C10.58 421.72 10.58 421.72 12.91 421.87 C25.22 422.49 37.3 420 49.39 417.94 C57.58 416.56 65.79 415.27 74 414 C74.82 413.87 75.65 413.74 76.5 413.61 C99.71 410.05 122.35 408.46 145.85 408.92 C146.79 408.94 147.72 408.95 148.69 408.97 C150.43 409 152.16 409.04 153.9 409.1 C171.96 409.47 185.75 399.93 200 390 C201.15 389.2 202.3 388.4 203.45 387.61 C205.61 386.11 207.76 384.61 209.92 383.11 C213.77 380.47 217.7 377.97 221.66 375.51 C223.85 374.09 225.93 372.59 228 371 C228.33 373.31 228.66 375.62 229 378 C246.29 379.05 260.72 376.85 277 371 C277.71 370.75 278.43 370.5 279.16 370.24 C289.29 366.63 289.29 366.63 292 362 C292.36 360.34 292.7 358.67 293 357 C292.45 357.04 291.9 357.08 291.33 357.11 C285.5 357.51 279.68 357.9 273.85 358.28 C271.69 358.43 269.53 358.57 267.36 358.72 C250.27 359.88 233.44 360.6 216.33 359.18 C204.49 358.4 195.41 361.23 185.07 366.94 C181.94 368.66 178.78 370.33 175.62 372 C174.98 372.34 174.35 372.68 173.69 373.02 C167.35 376.38 160.9 379.45 154.38 382.44 C153.37 382.9 152.36 383.37 151.33 383.85 C144.38 387 144.38 387 141 387 C141.99 383.04 142.98 379.08 144 375 C143.15 375.2 142.3 375.41 141.43 375.62 C140.26 375.89 139.08 376.16 137.88 376.44 C137.31 376.57 137.31 376.57 134.43 377.25 C120.9 379.73 108.88 378.34 95.41 376.25 C89.81 375.39 84.21 374.6 78.61 373.79 C77.51 373.63 76.41 373.48 75.27 373.31 C42.75 368.65 6.4 364.44 -26 372 C-26.76 372.17 -27.52 372.33 -28.3 372.5 C-38.57 374.79 -48.27 378.11 -58.05 381.97 C-64.35 384.44 -70.7 386.57 -77.19 388.5 C-78.04 388.76 -78.9 389.01 -79.78 389.27 C-85.71 391 -85.71 391 -88 391 C-86.74 387.21 -85.18 386.43 -82 384.06 C-75.45 378.87 -69.77 372.55 -66 365 C-66.62 365 -67.24 365 -67.88 365.01 C-74.43 365.03 -80.99 365.04 -87.55 365.05 C-89.98 365.06 -92.41 365.07 -94.85 365.08 C-113.65 365.14 -132.41 365.19 -151.06 362.56 C-157.65 361.68 -164.21 360.86 -170.83 360.28 C-190.01 358.55 -204.63 350.05 -220.44 339.62 C-221.38 339.01 -222.32 338.39 -223.29 337.75 C-224.17 337.16 -225.04 336.58 -225.93 335.98 C-226.72 335.45 -227.5 334.93 -228.31 334.39 C-228.87 333.93 -229.43 333.47 -230 333 C-230 332.34 -230 331.68 -230 331 C-217.53 328.71 -204.45 333.08 -193.98 340 C-192.12 341.35 -190.29 342.73 -188.47 344.13 C-186.07 345.95 -183.61 347.5 -181 349 C-181.07 348.29 -181.14 347.59 -181.22 346.86 C-181.86 339.72 -182.16 332.6 -182.25 325.44 C-182.27 324.57 -182.29 323.7 -182.31 322.81 C-182.33 319.21 -182.34 316.68 -180.73 313.42 C-179 312 -179 312 -175.06 311.81 C-169.65 312.65 -165.59 315.43 -160.99 318.27 C-155.55 321.41 -150.47 323 -144.19 323 C-140.11 321.72 -138.57 320.42 -136 317 C-134.73 314.06 -133.84 311.08 -133 308 C-132.79 307.29 -132.59 306.59 -132.38 305.86 C-131.9 304.25 -131.45 302.62 -131 301 C-129.68 300.67 -128.36 300.34 -127 300 C-127.33 296.7 -127.66 293.4 -128 290 C-125.69 289.01 -123.38 288.02 -121 287 C-121.99 284.36 -122.98 281.72 -124 279 C-118.4 276.33 -113.07 274.32 -107 273 C-109.77 266.62 -113.44 261.79 -117.98 256.52 C-121.41 252.25 -122.55 249.56 -122 244 C-120.69 240.63 -120.69 240.63 -119 237.12 C-116.57 231.84 -115.22 227.83 -116 222 C-116.33 221.34 -116.66 220.68 -117 220 C-119.35 220.91 -121.67 221.85 -123.95 222.92 C-129.23 225.38 -134.36 227.04 -140.03 228.33 C-141.75 228.74 -143.46 229.15 -145.18 229.56 C-147.83 230.19 -150.47 230.81 -153.12 231.42 C-165.31 234.26 -176.56 237.93 -188 243 C-189.66 243.68 -191.33 244.35 -193 245 C-192.88 240.2 -192.51 236.82 -189.94 232.69 C-184.16 227.4 -177.21 225.25 -169.78 223.2 C-169.35 223.07 -169.35 223.07 -167.16 222.45 C-163.51 221.41 -159.86 220.38 -156.21 219.36 C-120.85 209.4 -120.85 209.4 -115 203 C-113.28 194.71 -117.41 186.18 -121.81 179.25 C-134.6 161.38 -156.49 153.35 -177.5 149.75 C-201.21 146.79 -224.69 149.12 -244.5 163.38 C-256.31 172.89 -264.66 185.07 -267.62 200.19 C-268.46 208.68 -268 216.64 -266.35 224.99 C-266.17 225.92 -266 226.85 -265.82 227.81 C-265.24 230.83 -264.65 233.85 -264.06 236.88 C-263.66 238.99 -263.25 241.1 -262.85 243.21 C-259.59 260.25 -256.2 277.26 -252.74 294.26 C-252.56 295.17 -252.37 296.08 -252.18 297.02 C-251.84 298.73 -251.49 300.43 -251.14 302.14 C-250 307.78 -250 307.78 -250 310 C-234.14 300.78 -224.86 289.41 -220.13 271.68 C-219.34 268.46 -218.66 265.24 -218 262 C-217.78 260.94 -217.55 259.87 -217.32 258.77 C-216.86 256.52 -216.41 254.26 -216 252 C-215.34 252 -214.68 252 -214 252 C-210.35 268.72 -208.43 284.17 -218.02 299.3 C-222.19 304.97 -227.09 309.97 -232 315 C-232.49 315.51 -232.99 316.02 -233.49 316.54 C-237.93 321.1 -242.41 325.56 -247.25 329.69 C-267.97 347.51 -282.12 374.77 -284.23 401.99 C-285.16 420.63 -282.63 433.88 -271.69 449.25 C-263.76 457.37 -252.88 463.02 -241.47 463.24 C-226.98 463.3 -216.22 459.37 -205.68 449.04 C-203.92 447.24 -202.18 445.44 -200.44 443.62 C-198.67 441.8 -196.9 439.98 -195.12 438.16 C-194.35 437.36 -193.58 436.56 -192.79 435.74 C-191 434 -191 434 -190 434 C-188.75 447.48 -196.21 459.43 -204.31 469.5 C-214.63 481.77 -225.36 493.1 -238 503 C-238.31 503.25 -238.31 503.25 -239.91 504.5 C-259.75 520.07 -280.84 533.01 -303 545 C-303.84 545.46 -304.69 545.91 -305.56 546.39 C-332.54 560.91 -360.52 573.11 -388.72 585.04 C-392.67 586.71 -396.61 588.38 -400.55 590.06 C-408.37 593.38 -416.18 596.69 -424 600 C-407.98 599.35 -392.03 598.09 -376.06 596.69 C-375.43 596.63 -375.43 596.63 -372.24 596.36 C-357.11 595.04 -342.1 593.49 -327.09 591.18 C-299.35 587.1 -299.35 587.1 -292 592 C-292.5 594.81 -292.5 594.81 -294 598 C-299.85 600.58 -305.94 602.15 -312.12 603.75 C-314.11 604.28 -316.1 604.8 -318.1 605.33 C-318.61 605.46 -318.61 605.46 -321.23 606.15 C-391.57 624.75 -391.57 624.75 -416 643 C-416.64 643.47 -417.28 643.95 -417.94 644.43 C-426.54 650.83 -434.9 657.47 -443.02 664.45 C-445.82 666.84 -448.65 669.18 -451.5 671.5 C-456.32 675.42 -461.05 679.42 -465.76 683.46 C-469.78 686.89 -469.78 686.89 -472 688 C-469.82 706.89 -455.29 727.36 -441.19 739.4 C-415.1 759.82 -383.14 759.11 -351.74 755.48 C-312.64 750.51 -271.23 742.33 -235.74 724.72 C-228.57 721.18 -221.24 718.07 -213.87 714.98 C-178.76 700.24 -148.77 685.68 -124.1 655.53 C-123.41 654.69 -122.71 653.86 -122 653 C-121.67 653 -121.34 653 -121 653 C-120.07 664.59 -124.37 676.64 -131.15 685.95 C-134.13 689.45 -137.56 691.21 -141.62 693.25 C-150.13 697.73 -158.1 702.89 -166.06 708.25 C-166.64 708.64 -167.21 709.03 -167.81 709.42 C-168.37 709.81 -168.94 710.19 -169.52 710.58 C-170.07 710.95 -170.63 711.33 -171.2 711.71 C-172.82 712.81 -174.42 713.92 -176.03 715.04 C-179 717 -179 717 -181.69 718.37 C-185.6 720.42 -187.55 721.86 -189.21 726.04 C-190.14 729.88 -190.8 733.72 -191.38 737.62 C-191.61 739.02 -191.84 740.42 -192.08 741.82 C-192.77 745.87 -193.39 749.94 -194 754 C-194.33 756.05 -194.66 758.09 -195 760.14 C-201 797.74 -201 797.74 -190.81 813 C-176.24 832.72 -176.24 832.72 -164.25 834.58 C-160.83 834.84 -157.44 834.99 -154 835 C-154 835.66 -154 836.32 -154 837 C-160.58 841.55 -166.01 843.23 -174 842 C-183.73 839.21 -192.55 832.3 -200.44 826.16 C-202 825 -202 825 -204 824 C-204.04 824.69 -204.09 825.39 -204.13 826.1 C-204.73 834.47 -206.02 842.63 -207.51 850.88 C-207.77 852.3 -208.02 853.72 -208.27 855.14 C-208.8 858.11 -209.34 861.08 -209.87 864.05 C-210.54 867.76 -211.21 871.48 -211.87 875.2 C-215.13 893.58 -218.76 911.82 -223 930 C-230.06 928.51 -236.71 926.53 -243.5 924.06 C-244.59 923.67 -245.68 923.27 -246.8 922.87 C-289.62 907.06 -329.72 884.65 -366 857 C-366.58 856.56 -367.17 856.11 -367.77 855.65 C-374.36 850.6 -380.81 845.39 -387.12 840 C-387.64 839.56 -388.15 839.12 -388.68 838.67 C-398.66 830.06 -408.2 820.99 -417.52 811.67 C-419.19 810 -420.87 808.33 -422.55 806.67 C-428.37 800.88 -433.83 794.99 -438.94 788.55 C-440.93 786.09 -442.99 783.75 -445.11 781.41 C-449.1 776.96 -452.7 772.3 -456.25 767.5 C-456.57 767.06 -456.57 767.06 -458.22 764.85 C-460.15 762.24 -462.08 759.62 -464 757 C-464.52 756.3 -465.04 755.6 -465.58 754.88 C-517 685.53 -547.41 598.21 -550 421 C-549.92 420.34 -549.83 419.67 -549.74 418.99 C-545.08 382.92 -535.99 351.05 -519.95 318.4 C-516.04 310.37 -512.57 302.23 -509.25 293.94 C-495.92 260.98 -478.68 229.91 -458 201 C-457.42 200.19 -456.85 199.39 -456.25 198.55 C-449.67 189.39 -442.93 180.45 -435.53 171.93 C-433.04 169.04 -430.64 166.1 -428.25 163.12 C-425.27 159.46 -422.19 156.05 -418.78 152.78 C-417.03 151.03 -415.42 149.21 -413.82 147.33 C-409.92 142.84 -405.78 138.63 -401.56 134.44 C-400.85 133.72 -400.14 133.01 -399.4 132.27 C-395.32 128.19 -391.14 124.29 -386.77 120.53 C-384.59 118.65 -382.49 116.7 -380.38 114.75 C-374.72 109.65 -368.77 104.99 -362.74 100.35 C-361.13 99.1 -359.52 97.83 -357.92 96.57 C-323.7 69.78 -285.99 48.82 -246 32 C-274.16 39.23 -300.97 50.15 -327 63 C-328.01 63.5 -329.03 64 -330.07 64.52 C-369.91 84.35 -405.94 110.36 -438.48 140.6 C-440.05 142.05 -441.63 143.47 -443.21 144.9 C-450.42 151.41 -457.11 158.22 -463.6 165.44 C-464.94 166.93 -466.3 168.41 -467.66 169.88 C-472.88 175.55 -477.9 181.34 -482.7 187.38 C-483.61 188.51 -484.52 189.63 -485.43 190.76 C-546.79 265.92 -581.97 361.59 -586.04 532.82 C-581.18 579.14 -569.14 623.78 -552 667 C-552 664.43 -552.66 662.29 -553.32 659.8 C-559.68 635.48 -564.54 611.11 -567.31 586.12 C-567.35 585.76 -567.35 585.76 -567.56 583.91 C-569.39 567.22 -570.21 550.54 -570.19 533.75 C-570.19 532.98 -570.19 532.21 -570.19 531.42 C-570.14 510.09 -568.65 488.97 -566 467.81 C-565.96 467.47 -565.96 467.47 -565.75 465.76 C-565.51 463.84 -565.25 461.93 -565 460.02 C-564.86 458.93 -564.71 457.84 -564.56 456.71 C-564 454 -564 454 -562 451 C-562.01 452.27 -562.02 453.54 -562.03 454.85 C-562.4 503.99 -562.4 503.99 -560 527 C-559.94 527.6 -559.94 527.6 -559.63 530.65 C-553.26 590.15 -535.65 646.47 -509 700 C-508.59 700.83 -508.18 701.67 -507.75 702.52 C-492.07 734.04 -471.62 763.1 -449 790 C-448.53 790.56 -448.06 791.12 -447.58 791.69 C-442.2 798.1 -436.81 804.38 -430.8 810.21 C-428.91 812.09 -427.17 814.05 -425.44 816.06 C-420.47 821.82 -415.11 826.98 -409.34 831.93 C-407.02 833.98 -404.77 836.09 -402.51 838.21 C-395.88 844.44 -388.96 850.12 -381.74 855.65 C-380.05 856.96 -378.37 858.3 -376.71 859.64 C-353.84 878.03 -328.96 893.39 -303 907 C-302.05 907.5 -301.11 908 -300.13 908.51 C-277.25 920.48 -253.48 929.85 -229 938 C-228.01 938.33 -227.02 938.66 -226 939 C-226.33 941.97 -226.66 944.94 -227 948 C-292.98 942.94 -365.33 904.12 -417 865 C-417.75 864.43 -418.5 863.87 -419.27 863.29 C-429.87 855.25 -440.09 846.87 -450 838 C-450.51 837.55 -451.02 837.09 -451.55 836.62 C-458.86 830.12 -465.84 823.28 -472.79 816.39 C-474.21 814.98 -475.63 813.58 -477.05 812.18 C-485.88 803.35 -493.61 794.33 -499.75 783.44 C-503.68 776.67 -507.84 770.23 -512.5 763.94 C-570.41 685.49 -597.62 589.32 -595.96 413.12 C-582.79 326.47 -546.37 240.91 -488.39 174.6 C-486.89 172.87 -485.41 171.12 -483.93 169.38 C-479.08 163.63 -474.2 158.03 -468.8 152.79 C-466.91 150.91 -465.17 148.95 -463.44 146.94 C-458.47 141.18 -453.11 136.03 -447.36 131.07 C-444.98 128.99 -442.67 126.85 -440.36 124.69 C-434.11 118.85 -427.71 113.32 -421 108 C-419.79 107.01 -418.58 106.02 -417.37 105.04 C-341.46 43.81 -247.08 10.01 -150.46 2.28 C-146.5 1.96 -142.55 1.61 -138.59 1.24 C-136.85 1.08 -135.1 0.92 -133.36 0.77 C-128.45 0.35 -123.57 -0.17 -118.68 -0.79 C-80.05 -5.41 -38.53 -5.59 0 0 Z M-457 221 C-457 224 -457 224 -457 224 Z M-314 248 C-321.19 256.22 -325.89 266 -325.37 277.09 C-323.56 291.3 -316.66 304.18 -310.59 316.97 C-300.69 337.85 -300.69 337.85 -297.81 347.56 C-297.62 348.22 -297.42 348.88 -297.22 349.56 C-295.65 355.33 -295.1 360.1 -297.69 365.56 C-299.84 368.96 -302.35 371.98 -305 375 C-293.8 373.16 -283.98 368.13 -277 359 C-268.01 344.14 -266.62 327.71 -270.56 310.94 C-272.41 304.11 -274.91 297.47 -277.54 290.91 C-281.26 281.39 -282.25 271.96 -282.5 261.81 C-283.24 239.94 -283.24 239.94 -286 230 C-295.32 230 -307.68 241.91 -314 248 Z M-550 671 C-549 674 -549 674 -549 674 Z M-126 950 C-126.68 951.22 -127.35 952.43 -128.05 953.68 C-128.95 955.27 -129.85 956.85 -130.75 958.44 C-131.19 959.24 -131.64 960.04 -132.09 960.87 C-132.53 961.63 -132.97 962.4 -133.42 963.18 C-133.82 963.89 -134.22 964.6 -134.63 965.33 C-136.32 967.39 -137.46 967.44 -140 968 C-143.93 976.16 -146.2 986.96 -144.5 996 C-142.82 999.36 -141.56 1000.08 -138.13 1001.42 C-134.07 1002.52 -130.03 1002.31 -125.85 1002.18 C-125.37 1002.17 -125.37 1002.17 -122.91 1002.12 C-120.86 1002.08 -118.8 1002.02 -116.75 1001.96 C-113.67 1001.88 -110.59 1001.82 -107.5 1001.77 C-69.49 1000.93 -69.49 1000.93 -56.62 988.8 C-51.55 983.18 -50.86 976.97 -50.94 969.69 C-50.95 968.62 -50.96 967.55 -50.96 966.45 C-50.98 965.64 -50.99 964.83 -51 964 C-58.27 964.42 -65.54 964.87 -72.8 965.48 C-89.53 966.87 -106.22 967.57 -123 968 C-122.49 966.94 -121.99 965.88 -121.47 964.79 C-120.81 963.4 -120.16 962.01 -119.5 960.62 C-119.17 959.93 -118.83 959.23 -118.49 958.51 C-116 953.23 -116 953.23 -116 951 C-119.3 950.67 -122.6 950.34 -126 950 Z " fill="#FF5F00" transform="translate(601,3)"/>
<path d="M0 0 C3.07 1.36 5.07 2.86 7.36 5.31 C7.97 5.97 8.59 6.63 9.23 7.31 C9.55 7.66 9.55 7.66 11.19 9.44 C11.86 10.16 12.53 10.88 13.22 11.63 C17.61 16.4 21.81 21.25 25.84 26.32 C27.8 28.75 29.82 31.12 31.87 33.47 C93.57 104.75 128.69 199.82 139 316 C139.06 317.16 139.13 318.33 139.2 319.53 C140.92 373.3 120.92 431.48 99 480 C98.56 480.98 98.11 481.97 97.66 482.98 C78.26 525.58 51.79 564.92 20.27 599.49 C19.02 600.87 17.78 602.25 16.58 603.67 C11.68 609.39 6.42 614.73 1.08 620.05 C-0.43 621.56 -1.95 623.08 -3.46 624.6 C-8.8 629.94 -14.23 635.12 -20 640 C-21.01 640.88 -22.02 641.75 -23.03 642.63 C-31.76 650.11 -40.79 657.12 -50 664 C-50.72 664.54 -51.44 665.08 -52.18 665.63 C-64.02 674.49 -76.29 682.44 -89 690 C-89.85 690.51 -90.71 691.02 -91.59 691.54 C-129.41 713.94 -169.79 730.04 -212.06 741.81 C-212.51 741.94 -212.51 741.94 -214.75 742.57 C-220.62 744.13 -220.62 744.13 -224 743 C-223.64 742.85 -223.64 742.85 -221.82 742.09 C-219.7 741.21 -217.57 740.32 -215.45 739.44 C-213.26 738.53 -211.07 737.61 -208.88 736.7 C-157.68 715.36 -110.7 687.82 -69 651 C-68.16 650.26 -67.31 649.51 -66.44 648.75 C-63.94 646.52 -61.47 644.26 -59 642 C-58.73 641.76 -58.73 641.76 -57.37 640.53 C-42.5 627.03 -28.79 612.48 -16 597 C-15.52 596.42 -15.03 595.83 -14.53 595.23 C2.03 575.12 17 553.58 30 531 C30.38 530.34 30.77 529.67 31.16 528.99 C67.04 466.52 88.45 396.83 94 325 C94.06 324.32 94.12 323.64 94.18 322.94 C100.59 246.15 86.28 166.26 55 96 C54.75 95.44 54.75 95.44 53.5 92.62 C46.2 76.21 38.17 60.44 29 45 C28.53 44.2 28.06 43.4 27.57 42.57 C19.73 29.29 11.16 16.5 2.12 4.01 C0 1 0 1 0 0 Z " fill="#FF5F00" transform="translate(852,199)"/>
<path d="M0 0 C2.8 1.31 5.12 2.76 7.52 4.7 C8.2 5.24 8.88 5.78 9.58 6.34 C9.95 6.63 9.95 6.63 11.81 8.12 C53.21 40.65 100.31 65.75 150 83 C151.03 83.36 152.05 83.71 153.11 84.08 C167.34 88.97 181.75 92.86 196.37 96.39 C197.03 96.55 197.69 96.71 198.37 96.87 C200.17 97.31 201.98 97.74 203.78 98.17 C206.91 98.98 209.95 99.94 213 101 C212.73 101.97 212.47 102.94 212.2 103.94 C209.63 113.58 208 123.07 207 133 C160.13 118.35 115.96 96.59 76 68 C75.19 67.42 74.39 66.85 73.55 66.25 C64.39 59.67 55.45 52.93 46.93 45.52 C44.06 43.05 41.14 40.68 38.19 38.31 C34.16 35.04 30.48 31.6 26.88 27.88 C25.09 26.09 23.24 24.45 21.31 22.81 C17.48 19.5 13.85 16 10.25 12.44 C9.69 11.9 9.14 11.35 8.57 10.79 C5.19 7.43 2.51 4.05 0 0 Z " fill="#FF5F00" transform="translate(158,860)"/>
<path d="M0 0 C1.24 0.2 2.49 0.41 3.77 0.62 C11.71 1.91 19.59 3.15 27.62 3.75 C31.5 4.16 35.21 5.07 39 6 C39 6.66 39 7.32 39 8 C36.91 9.95 36.91 9.95 34.06 12.12 C33.15 12.85 32.23 13.57 31.29 14.32 C23.92 18.08 15.7 15.6 7.94 14 C6.98 13.81 6.02 13.62 5.03 13.42 C2.68 12.96 0.34 12.48 -2 12 C-1.06 3.96 -1.06 3.96 0 0 Z " fill="#FF5F00" transform="translate(390,950)"/>
<path d="M0 0 C-3.43 4.04 -7.22 5.7 -12 7.69 C-12.36 7.84 -12.36 7.84 -14.16 8.62 C-19.83 11.04 -24.38 12.15 -30.62 12.19 C-31.77 12.2 -32.92 12.22 -34.1 12.23 C-37 12 -37 12 -39 10 C-38.22 9.72 -37.45 9.44 -36.65 9.15 C-26.66 5.45 -26.66 5.45 -22.44 3.04 C-14.36 -1.55 -9.04 -2.9 0 0 Z " fill="#FF5F00" transform="translate(410,967)"/>
</svg>

